<?xml version="1.0" encoding="UTF-8" standalone="no"?>
<!DOCTYPE svg PUBLIC "-//W3C//DTD SVG 1.1//EN" "http://www.w3.org/Graphics/SVG/1.1/DTD/svg11.dtd">
<!-- Generated by graphviz version 2.40.1 (20161225.0304)
 -->
<!-- Title: UML_Class_diagram Pages: 1 -->
<svg width="1211pt" height="1045pt" viewBox="0.00 0.00 1211.00 1044.80" xmlns="http://www.w3.org/2000/svg" xmlns:xlink="http://www.w3.org/1999/xlink">
<g id="graph0" class="graph" transform="scale(1 1) rotate(0) translate(4 1040.8)">
<title>UML_Class_diagram</title>
<polygon fill="#ffffff" stroke="transparent" points="-4,4 -4,-1040.8 1207,-1040.8 1207,4 -4,4"/>
<text text-anchor="middle" x="601.5" y="-1020.2" font-family="Helvetica,Arial,sans-serif" font-size="14.00" fill="#000000">UML Class Diagram of The Gin</text>
<!-- Class_Deck -->
<g id="node1" class="node">
<title>Class_Deck</title>
<polygon fill="#f2f2f2" stroke="transparent" points="935,-1012 664,-1012 664,-806 935,-806 935,-1012"/>
<polygon fill="none" stroke="#000000" points="664.5,-986 664.5,-1012 935.5,-1012 935.5,-986 664.5,-986"/>
<text text-anchor="start" x="780.1648" y="-995.4" font-family="Helvetica,Arial,sans-serif" font-size="14.00" fill="#000000"> </text>
<text text-anchor="start" x="784.0554" y="-995.4" font-family="Helvetica,Arial,sans-serif" font-weight="bold" font-size="14.00" fill="#000000">Deck</text>
<text text-anchor="start" x="815.9446" y="-995.4" font-family="Helvetica,Arial,sans-serif" font-size="14.00" fill="#000000"> </text>
<polygon fill="none" stroke="#000000" points="664.5,-916 664.5,-986 935.5,-986 935.5,-916 664.5,-916"/>
<text text-anchor="start" x="671.5" y="-966.4" font-family="Helvetica,Arial,sans-serif" font-size="14.00" fill="#000000">+ draw_pile: Tuple«Card, ...»</text>
<text text-anchor="start" x="671.5" y="-946.4" font-family="Helvetica,Arial,sans-serif" font-size="14.00" fill="#000000">+ discard_pile: Tuple«Card, ...»</text>
<text text-anchor="start" x="671.5" y="-926.4" font-family="Helvetica,Arial,sans-serif" font-size="14.00" fill="#000000">+ discard_pile_top: Card</text>
<polygon fill="none" stroke="#000000" points="664.5,-806 664.5,-916 935.5,-916 935.5,-806 664.5,-806"/>
<text text-anchor="start" x="671.0537" y="-896.4" font-family="Helvetica,Arial,sans-serif" font-size="14.00" fill="#000000">+ deal(player_count: int): List«Hand, ...»</text>
<text text-anchor="start" x="671.5" y="-876.4" font-family="Helvetica,Arial,sans-serif" font-size="14.00" fill="#000000">+ draw_from_draw_pile(): Card</text>
<text text-anchor="start" x="671.5" y="-856.4" font-family="Helvetica,Arial,sans-serif" font-size="14.00" fill="#000000">+ draw_from_discard_pile(): Card</text>
<text text-anchor="start" x="671.5" y="-836.4" font-family="Helvetica,Arial,sans-serif" font-size="14.00" fill="#000000">+ add_to_discard_pile(card: Card): void</text>
<text text-anchor="start" x="671.5" y="-816.4" font-family="Helvetica,Arial,sans-serif" font-size="14.00" fill="#000000">+ __str__()</text>
</g>
<!-- Class_Hand -->
<g id="node2" class="node">
<title>Class_Hand</title>
<polygon fill="#f2f2f2" stroke="transparent" points="477.5,-766 260.5,-766 260.5,-580 477.5,-580 477.5,-766"/>
<polygon fill="none" stroke="#000000" points="261,-740 261,-766 478,-766 478,-740 261,-740"/>
<text text-anchor="start" x="348.8822" y="-749.4" font-family="Helvetica,Arial,sans-serif" font-size="14.00" fill="#000000"> </text>
<text text-anchor="start" x="352.7728" y="-749.4" font-family="Helvetica,Arial,sans-serif" font-weight="bold" font-size="14.00" fill="#000000">Hand</text>
<text text-anchor="start" x="386.2272" y="-749.4" font-family="Helvetica,Arial,sans-serif" font-size="14.00" fill="#000000"> </text>
<polygon fill="none" stroke="#000000" points="261,-690 261,-740 478,-740 478,-690 261,-690"/>
<text text-anchor="start" x="268" y="-720.4" font-family="Helvetica,Arial,sans-serif" font-size="14.00" fill="#000000">- deck</text>
<text text-anchor="start" x="268" y="-700.4" font-family="Helvetica,Arial,sans-serif" font-size="14.00" fill="#000000">- cards</text>
<polygon fill="none" stroke="#000000" points="261,-580 261,-690 478,-690 478,-580 261,-580"/>
<text text-anchor="start" x="268" y="-670.4" font-family="Helvetica,Arial,sans-serif" font-size="14.00" fill="#000000">+ draw_from_draw_pile(): void</text>
<text text-anchor="start" x="267.7963" y="-650.4" font-family="Helvetica,Arial,sans-serif" font-size="14.00" fill="#000000">+ draw_from_discard_pile(): void</text>
<text text-anchor="start" x="268" y="-630.4" font-family="Helvetica,Arial,sans-serif" font-size="14.00" fill="#000000">+ check(): bool</text>
<text text-anchor="start" x="268" y="-610.4" font-family="Helvetica,Arial,sans-serif" font-size="14.00" fill="#000000">+ discard(key: int): void</text>
<text text-anchor="start" x="268" y="-590.4" font-family="Helvetica,Arial,sans-serif" font-size="14.00" fill="#000000">+ __str__()</text>
</g>
<!-- Class_Hand&#45;&gt;Class_Deck -->
<g id="edge4" class="edge">
<title>Class_Hand:chd-&gt;Class_Deck</title>
<path fill="none" stroke="#000000" d="M473,-725C519.2073,-725 509.6554,-771.2162 548,-797 580.7258,-819.0056 618.4813,-838.4605 654.625,-854.7231"/>
<polygon fill="#000000" stroke="#000000" points="653.2156,-857.9268 663.7754,-858.7885 656.0578,-851.5297 653.2156,-857.9268"/>
</g>
<!-- Interface_List -->
<g id="node3" class="node">
<title>Interface_List</title>
<polygon fill="#f2f2f2" stroke="transparent" points="901.5,-604 697.5,-604 697.5,-496 901.5,-496 901.5,-604"/>
<polygon fill="none" stroke="#000000" points="697.5,-566 697.5,-604 901.5,-604 901.5,-566 697.5,-566"/>
<text text-anchor="start" x="758.2721" y="-587.4" font-family="Helvetica,Arial,sans-serif" font-size="14.00" fill="#000000"> </text>
<text text-anchor="start" x="762.1627" y="-587.4" font-family="Helvetica,Arial,sans-serif" font-weight="bold" font-size="14.00" fill="#000000">«interface»</text>
<text text-anchor="start" x="752.8261" y="-573.4" font-family="Helvetica,Arial,sans-serif" font-weight="bold" font-size="14.00" fill="#000000">Read-only List</text>
<text text-anchor="start" x="842.2833" y="-573.4" font-family="Helvetica,Arial,sans-serif" font-size="14.00" fill="#000000"> </text>
<polygon fill="none" stroke="#000000" points="697.5,-496 697.5,-566 901.5,-566 901.5,-496 697.5,-496"/>
<text text-anchor="start" x="704.5" y="-546.4" font-family="Helvetica,Arial,sans-serif" font-size="14.00" fill="#000000">+ __len__(): int</text>
<text text-anchor="start" x="704.0137" y="-526.4" font-family="Helvetica,Arial,sans-serif" font-size="14.00" fill="#000000">+ __iter__(): generator«item»</text>
<text text-anchor="start" x="704.5" y="-506.4" font-family="Helvetica,Arial,sans-serif" font-size="14.00" fill="#000000">+ __getitem__(key: int): item</text>
</g>
<!-- Class_Hand&#45;&gt;Interface_List -->
<g id="edge5" class="edge">
<title>Class_Hand-&gt;Interface_List</title>
<path fill="none" stroke="#000000" stroke-dasharray="5,2" d="M477.9065,-634.9892C500.9466,-627.3716 525.1924,-619.6681 548,-613 593.3875,-599.7304 643.8771,-586.7422 687.638,-576.0392"/>
<polygon fill="none" stroke="#000000" points="688.5583,-579.4175 697.4463,-573.6509 686.9021,-572.6162 688.5583,-579.4175"/>
</g>
<!-- Class_Card -->
<g id="node4" class="node">
<title>Class_Card</title>
<polygon fill="#f2f2f2" stroke="transparent" points="871.5,-788 727.5,-788 727.5,-622 871.5,-622 871.5,-788"/>
<polygon fill="none" stroke="#000000" points="727.5,-762 727.5,-788 871.5,-788 871.5,-762 727.5,-762"/>
<text text-anchor="start" x="780.4432" y="-771.4" font-family="Helvetica,Arial,sans-serif" font-size="14.00" fill="#000000"> </text>
<text text-anchor="start" x="784.3338" y="-771.4" font-family="Helvetica,Arial,sans-serif" font-weight="bold" font-size="14.00" fill="#000000">Card</text>
<text text-anchor="start" x="814.6662" y="-771.4" font-family="Helvetica,Arial,sans-serif" font-size="14.00" fill="#000000"> </text>
<polygon fill="none" stroke="#000000" points="727.5,-692 727.5,-762 871.5,-762 871.5,-692 727.5,-692"/>
<text text-anchor="start" x="734.5" y="-742.4" font-family="Helvetica,Arial,sans-serif" font-size="14.00" fill="#000000">+ card_id: int</text>
<text text-anchor="start" x="734.5" y="-722.4" font-family="Helvetica,Arial,sans-serif" font-size="14.00" fill="#000000">+ rank: Rank</text>
<text text-anchor="start" x="734.5" y="-702.4" font-family="Helvetica,Arial,sans-serif" font-size="14.00" fill="#000000">+ suit: Suit</text>
<polygon fill="none" stroke="#000000" points="727.5,-622 727.5,-692 871.5,-692 871.5,-622 727.5,-622"/>
<text text-anchor="start" x="734.5" y="-672.4" font-family="Helvetica,Arial,sans-serif" font-size="14.00" fill="#000000">+ __str__()</text>
<text text-anchor="start" x="734.3489" y="-652.4" font-family="Helvetica,Arial,sans-serif" font-size="14.00" fill="#000000">+ __comparators__()</text>
<text text-anchor="start" x="734.5" y="-632.4" font-family="Helvetica,Arial,sans-serif" font-size="14.00" fill="#000000">+ __arithmetic__()</text>
</g>
<!-- Class_Hand&#45;&gt;Class_Card -->
<g id="edge3" class="edge">
<title>Class_Hand:chc-&gt;Class_Card</title>
<path fill="none" stroke="#000000" d="M473,-705C555.995,-705 650.8572,-705 716.8627,-705"/>
<polygon fill="#000000" stroke="#000000" points="717.2023,-708.5001 727.2022,-705 717.2022,-701.5001 717.2023,-708.5001"/>
</g>
<!-- Enum_Suit -->
<g id="node5" class="node">
<title>Enum_Suit</title>
<polygon fill="#f2f2f2" stroke="transparent" points="1203,-663 1087,-663 1087,-535 1203,-535 1203,-663"/>
<polygon fill="none" stroke="#000000" points="1087,-625 1087,-663 1203,-663 1203,-625 1087,-625"/>
<text text-anchor="start" x="1091.7132" y="-646.4" font-family="Helvetica,Arial,sans-serif" font-size="14.00" fill="#000000"> </text>
<text text-anchor="start" x="1095.6038" y="-646.4" font-family="Helvetica,Arial,sans-serif" font-weight="bold" font-size="14.00" fill="#000000">«enumeration»</text>
<text text-anchor="start" x="1130.9965" y="-632.4" font-family="Helvetica,Arial,sans-serif" font-weight="bold" font-size="14.00" fill="#000000">Suit</text>
<text text-anchor="start" x="1155.1129" y="-632.4" font-family="Helvetica,Arial,sans-serif" font-size="14.00" fill="#000000"> </text>
<polygon fill="none" stroke="#000000" points="1087,-535 1087,-625 1203,-625 1203,-535 1087,-535"/>
<text text-anchor="start" x="1094" y="-605.4" font-family="Helvetica,Arial,sans-serif" font-size="14.00" fill="#000000">Clubs</text>
<text text-anchor="start" x="1094" y="-585.4" font-family="Helvetica,Arial,sans-serif" font-size="14.00" fill="#000000">Diamonds</text>
<text text-anchor="start" x="1094" y="-565.4" font-family="Helvetica,Arial,sans-serif" font-size="14.00" fill="#000000">Hearts</text>
<text text-anchor="start" x="1094" y="-545.4" font-family="Helvetica,Arial,sans-serif" font-size="14.00" fill="#000000">Spades</text>
</g>
<!-- Class_Card&#45;&gt;Enum_Suit -->
<g id="edge1" class="edge">
<title>Class_Card:cces-&gt;Enum_Suit</title>
<path fill="none" stroke="#000000" d="M866.5,-707C942.7653,-707 1023.3149,-671.3589 1078.0581,-641.0259"/>
<polygon fill="#000000" stroke="#000000" points="1079.959,-643.9723 1086.9557,-636.0164 1076.5247,-637.8727 1079.959,-643.9723"/>
</g>
<!-- Enum_Rank -->
<g id="node6" class="node">
<title>Enum_Rank</title>
<polygon fill="#f2f2f2" stroke="transparent" points="1203,-989 1087,-989 1087,-681 1203,-681 1203,-989"/>
<polygon fill="none" stroke="#000000" points="1087,-951 1087,-989 1203,-989 1203,-951 1087,-951"/>
<text text-anchor="start" x="1091.7132" y="-972.4" font-family="Helvetica,Arial,sans-serif" font-size="14.00" fill="#000000"> </text>
<text text-anchor="start" x="1095.6038" y="-972.4" font-family="Helvetica,Arial,sans-serif" font-weight="bold" font-size="14.00" fill="#000000">«enumeration»</text>
<text text-anchor="start" x="1126.7188" y="-958.4" font-family="Helvetica,Arial,sans-serif" font-weight="bold" font-size="14.00" fill="#000000">Rank</text>
<text text-anchor="start" x="1159.3906" y="-958.4" font-family="Helvetica,Arial,sans-serif" font-size="14.00" fill="#000000"> </text>
<polygon fill="none" stroke="#000000" points="1087,-681 1087,-951 1203,-951 1203,-681 1087,-681"/>
<text text-anchor="start" x="1094" y="-931.4" font-family="Helvetica,Arial,sans-serif" font-size="14.00" fill="#000000">Ace</text>
<text text-anchor="start" x="1094" y="-911.4" font-family="Helvetica,Arial,sans-serif" font-size="14.00" fill="#000000">Two</text>
<text text-anchor="start" x="1094" y="-891.4" font-family="Helvetica,Arial,sans-serif" font-size="14.00" fill="#000000">Three</text>
<text text-anchor="start" x="1094" y="-871.4" font-family="Helvetica,Arial,sans-serif" font-size="14.00" fill="#000000">Four</text>
<text text-anchor="start" x="1094" y="-851.4" font-family="Helvetica,Arial,sans-serif" font-size="14.00" fill="#000000">Five</text>
<text text-anchor="start" x="1094" y="-831.4" font-family="Helvetica,Arial,sans-serif" font-size="14.00" fill="#000000">Six</text>
<text text-anchor="start" x="1094" y="-811.4" font-family="Helvetica,Arial,sans-serif" font-size="14.00" fill="#000000">Seven</text>
<text text-anchor="start" x="1094" y="-791.4" font-family="Helvetica,Arial,sans-serif" font-size="14.00" fill="#000000">Eight</text>
<text text-anchor="start" x="1094" y="-771.4" font-family="Helvetica,Arial,sans-serif" font-size="14.00" fill="#000000">Nine</text>
<text text-anchor="start" x="1094" y="-751.4" font-family="Helvetica,Arial,sans-serif" font-size="14.00" fill="#000000">Ten</text>
<text text-anchor="start" x="1094" y="-731.4" font-family="Helvetica,Arial,sans-serif" font-size="14.00" fill="#000000">Jack</text>
<text text-anchor="start" x="1094" y="-711.4" font-family="Helvetica,Arial,sans-serif" font-size="14.00" fill="#000000">Queen</text>
<text text-anchor="start" x="1094" y="-691.4" font-family="Helvetica,Arial,sans-serif" font-size="14.00" fill="#000000">King</text>
</g>
<!-- Class_Card&#45;&gt;Enum_Rank -->
<g id="edge2" class="edge">
<title>Class_Card:ccer-&gt;Enum_Rank</title>
<path fill="none" stroke="#000000" d="M866.5,-727C942.7653,-727 1023.3149,-762.6411 1078.0581,-792.9741"/>
<polygon fill="#000000" stroke="#000000" points="1076.5247,-796.1273 1086.9557,-797.9836 1079.959,-790.0277 1076.5247,-796.1273"/>
</g>
<!-- Class_Agent -->
<g id="node7" class="node">
<title>Class_Agent</title>
<polygon fill="#f2f2f2" stroke="transparent" points="512,-414 226,-414 226,-168 512,-168 512,-414"/>
<polygon fill="none" stroke="#000000" points="226,-388 226,-414 512,-414 512,-388 226,-388"/>
<text text-anchor="start" x="346.8219" y="-397.4" font-family="Helvetica,Arial,sans-serif" font-size="14.00" fill="#000000"> </text>
<text text-anchor="start" x="350.7125" y="-397.4" font-family="Helvetica,Arial,sans-serif" font-weight="bold" font-size="14.00" fill="#000000">Agent</text>
<text text-anchor="start" x="387.2875" y="-397.4" font-family="Helvetica,Arial,sans-serif" font-size="14.00" fill="#000000"> </text>
<polygon fill="none" stroke="#000000" points="226,-298 226,-388 512,-388 512,-298 226,-298"/>
<text text-anchor="start" x="233" y="-368.4" font-family="Helvetica,Arial,sans-serif" font-size="14.00" fill="#000000">- actor</text>
<text text-anchor="start" x="233" y="-348.4" font-family="Helvetica,Arial,sans-serif" font-size="14.00" fill="#000000">- actor_target</text>
<text text-anchor="start" x="233" y="-328.4" font-family="Helvetica,Arial,sans-serif" font-size="14.00" fill="#000000">- critic</text>
<text text-anchor="start" x="233" y="-308.4" font-family="Helvetica,Arial,sans-serif" font-size="14.00" fill="#000000">- critic_target</text>
<polygon fill="none" stroke="#000000" points="226,-168 226,-298 512,-298 512,-168 226,-168"/>
<text text-anchor="start" x="233" y="-278.4" font-family="Helvetica,Arial,sans-serif" font-size="14.00" fill="#000000">+ save(path: String): void</text>
<text text-anchor="start" x="233" y="-258.4" font-family="Helvetica,Arial,sans-serif" font-size="14.00" fill="#000000">+ load(path: String): void</text>
<text text-anchor="start" x="233" y="-238.4" font-family="Helvetica,Arial,sans-serif" font-size="14.00" fill="#000000">+ predict(observation: Array): Array</text>
<text text-anchor="start" x="233" y="-218.4" font-family="Helvetica,Arial,sans-serif" font-size="14.00" fill="#000000">+ target_predict(observation: Array): Array</text>
<text text-anchor="start" x="232.6666" y="-198.4" font-family="Helvetica,Arial,sans-serif" font-size="14.00" fill="#000000">+ update(adversaries: Array«Agent»): void</text>
<text text-anchor="start" x="233" y="-178.4" font-family="Helvetica,Arial,sans-serif" font-size="14.00" fill="#000000">+ target_update(): void</text>
</g>
<!-- Class_Actor -->
<g id="node8" class="node">
<title>Class_Actor</title>
<polygon fill="#f2f2f2" stroke="transparent" points="915.5,-478 683.5,-478 683.5,-372 915.5,-372 915.5,-478"/>
<polygon fill="none" stroke="#000000" points="683.5,-452 683.5,-478 915.5,-478 915.5,-452 683.5,-452"/>
<text text-anchor="start" x="779.2742" y="-461.4" font-family="Helvetica,Arial,sans-serif" font-size="14.00" fill="#000000"> </text>
<text text-anchor="start" x="783.1648" y="-461.4" font-family="Helvetica,Arial,sans-serif" font-weight="bold" font-size="14.00" fill="#000000">Actor</text>
<text text-anchor="start" x="815.8352" y="-461.4" font-family="Helvetica,Arial,sans-serif" font-size="14.00" fill="#000000"> </text>
<polygon fill="none" stroke="#000000" points="683.5,-422 683.5,-452 915.5,-452 915.5,-422 683.5,-422"/>
<text text-anchor="start" x="690.5" y="-432.4" font-family="Helvetica,Arial,sans-serif" font-size="14.00" fill="#000000">- model</text>
<polygon fill="none" stroke="#000000" points="683.5,-372 683.5,-422 915.5,-422 915.5,-372 683.5,-372"/>
<text text-anchor="start" x="690.4057" y="-402.4" font-family="Helvetica,Arial,sans-serif" font-size="14.00" fill="#000000">+ predict(observation: Array): Array</text>
<text text-anchor="start" x="690.5" y="-382.4" font-family="Helvetica,Arial,sans-serif" font-size="14.00" fill="#000000">+ train(observation: Array): float</text>
</g>
<!-- Class_Agent&#45;&gt;Class_Actor -->
<g id="edge6" class="edge">
<title>Class_Agent:caa-&gt;Class_Actor</title>
<path fill="none" stroke="#000000" d="M507,-373C561.315,-373 620.4397,-381.7992 671.2261,-392.1584"/>
<polygon fill="#000000" stroke="#000000" points="671.5268,-392.2211 678.2183,-389.5332 683.273,-394.6761 676.5816,-397.364 671.5268,-392.2211"/>
<text text-anchor="middle" x="679.773" y="-382.0761" font-family="Times,serif" font-size="14.00" fill="#000000">1</text>
<text text-anchor="middle" x="510.5" y="-360.4" font-family="Times,serif" font-size="14.00" fill="#000000">1</text>
</g>
<!-- Class_Actor_Target -->
<g id="node9" class="node">
<title>Class_Actor_Target</title>
<polygon fill="#f2f2f2" stroke="transparent" points="915.5,-354 683.5,-354 683.5,-248 915.5,-248 915.5,-354"/>
<polygon fill="none" stroke="#000000" points="683.5,-328 683.5,-354 915.5,-354 915.5,-328 683.5,-328"/>
<text text-anchor="start" x="759.0484" y="-337.4" font-family="Helvetica,Arial,sans-serif" font-size="14.00" fill="#000000"> </text>
<text text-anchor="start" x="762.939" y="-337.4" font-family="Helvetica,Arial,sans-serif" font-weight="bold" font-size="14.00" fill="#000000">ActorTarget</text>
<text text-anchor="start" x="836.061" y="-337.4" font-family="Helvetica,Arial,sans-serif" font-size="14.00" fill="#000000"> </text>
<polygon fill="none" stroke="#000000" points="683.5,-298 683.5,-328 915.5,-328 915.5,-298 683.5,-298"/>
<text text-anchor="start" x="690.5" y="-308.4" font-family="Helvetica,Arial,sans-serif" font-size="14.00" fill="#000000">- model</text>
<polygon fill="none" stroke="#000000" points="683.5,-248 683.5,-298 915.5,-298 915.5,-248 683.5,-248"/>
<text text-anchor="start" x="690.4057" y="-278.4" font-family="Helvetica,Arial,sans-serif" font-size="14.00" fill="#000000">+ predict(observation: Array): Array</text>
<text text-anchor="start" x="690.5" y="-258.4" font-family="Helvetica,Arial,sans-serif" font-size="14.00" fill="#000000">+ train(observation: Array): float</text>
</g>
<!-- Class_Agent&#45;&gt;Class_Actor_Target -->
<g id="edge7" class="edge">
<title>Class_Agent:caat-&gt;Class_Actor_Target</title>
<path fill="none" stroke="#000000" d="M507,-353C561.315,-353 620.4397,-344.2008 671.2261,-333.8416"/>
<polygon fill="#000000" stroke="#000000" points="671.5268,-333.7789 676.5816,-328.636 683.273,-331.3239 678.2183,-336.4668 671.5268,-333.7789"/>
<text text-anchor="middle" x="679.773" y="-318.7239" font-family="Times,serif" font-size="14.00" fill="#000000">1</text>
<text text-anchor="middle" x="510.5" y="-340.4" font-family="Times,serif" font-size="14.00" fill="#000000">1</text>
</g>
<!-- Class_Critic -->
<g id="node10" class="node">
<title>Class_Critic</title>
<polygon fill="#f2f2f2" stroke="transparent" points="1051,-230 548,-230 548,-124 1051,-124 1051,-230"/>
<polygon fill="none" stroke="#000000" points="548.5,-204 548.5,-230 1051.5,-230 1051.5,-204 548.5,-204"/>
<text text-anchor="start" x="780.1739" y="-213.4" font-family="Helvetica,Arial,sans-serif" font-size="14.00" fill="#000000"> </text>
<text text-anchor="start" x="784.0645" y="-213.4" font-family="Helvetica,Arial,sans-serif" font-weight="bold" font-size="14.00" fill="#000000">Critic</text>
<text text-anchor="start" x="815.9355" y="-213.4" font-family="Helvetica,Arial,sans-serif" font-size="14.00" fill="#000000"> </text>
<polygon fill="none" stroke="#000000" points="548.5,-174 548.5,-204 1051.5,-204 1051.5,-174 548.5,-174"/>
<text text-anchor="start" x="555.5" y="-184.4" font-family="Helvetica,Arial,sans-serif" font-size="14.00" fill="#000000">- model</text>
<polygon fill="none" stroke="#000000" points="548.5,-124 548.5,-174 1051.5,-174 1051.5,-124 548.5,-124"/>
<text text-anchor="start" x="555.5" y="-154.4" font-family="Helvetica,Arial,sans-serif" font-size="14.00" fill="#000000">+ predict(observation: Array, action: Array): float</text>
<text text-anchor="start" x="555.1512" y="-134.4" font-family="Helvetica,Arial,sans-serif" font-size="14.00" fill="#000000">+ train(observation: Array, action: Array, target_loss: float, weights: Array): float</text>
</g>
<!-- Class_Agent&#45;&gt;Class_Critic -->
<g id="edge8" class="edge">
<title>Class_Agent:cac-&gt;Class_Critic</title>
<path fill="none" stroke="#000000" d="M507,-333C552.5789,-333 513.1571,-268.3837 548,-239 548.5774,-238.513 549.1581,-238.0298 549.742,-237.5502"/>
<polygon fill="#000000" stroke="#000000" points="549.9419,-237.3972 552.2729,-230.5732 559.4685,-230.1002 557.1375,-236.9242 549.9419,-237.3972"/>
<text text-anchor="middle" x="555.9685" y="-234.3002" font-family="Times,serif" font-size="14.00" fill="#000000">1</text>
<text text-anchor="middle" x="510.5" y="-320.4" font-family="Times,serif" font-size="14.00" fill="#000000">1</text>
</g>
<!-- Class_Critic_Target -->
<g id="node11" class="node">
<title>Class_Critic_Target</title>
<polygon fill="#f2f2f2" stroke="transparent" points="1051,-106 548,-106 548,0 1051,0 1051,-106"/>
<polygon fill="none" stroke="#000000" points="548.5,-80 548.5,-106 1051.5,-106 1051.5,-80 548.5,-80"/>
<text text-anchor="start" x="759.9481" y="-89.4" font-family="Helvetica,Arial,sans-serif" font-size="14.00" fill="#000000"> </text>
<text text-anchor="start" x="763.8387" y="-89.4" font-family="Helvetica,Arial,sans-serif" font-weight="bold" font-size="14.00" fill="#000000">CriticTarget</text>
<text text-anchor="start" x="836.1613" y="-89.4" font-family="Helvetica,Arial,sans-serif" font-size="14.00" fill="#000000"> </text>
<polygon fill="none" stroke="#000000" points="548.5,-50 548.5,-80 1051.5,-80 1051.5,-50 548.5,-50"/>
<text text-anchor="start" x="555.5" y="-60.4" font-family="Helvetica,Arial,sans-serif" font-size="14.00" fill="#000000">- model</text>
<polygon fill="none" stroke="#000000" points="548.5,0 548.5,-50 1051.5,-50 1051.5,0 548.5,0"/>
<text text-anchor="start" x="555.5" y="-30.4" font-family="Helvetica,Arial,sans-serif" font-size="14.00" fill="#000000">+ predict(observation: Array, action: Array): float</text>
<text text-anchor="start" x="555.1512" y="-10.4" font-family="Helvetica,Arial,sans-serif" font-size="14.00" fill="#000000">+ train(observation: Array, action: Array, target_loss: float, weights: Array): float</text>
</g>
<!-- Class_Agent&#45;&gt;Class_Critic_Target -->
<g id="edge9" class="edge">
<title>Class_Agent:cact-&gt;Class_Critic_Target</title>
<path fill="none" stroke="#000000" d="M507,-313C596.8668,-313 485.6577,-179.7262 548,-115 548.0926,-114.9038 548.1854,-114.8078 548.2782,-114.7119"/>
<polygon fill="#000000" stroke="#000000" points="548.5523,-114.4519 550.1511,-107.4202 557.2568,-106.1915 555.658,-113.2232 548.5523,-114.4519"/>
<text text-anchor="middle" x="553.7568" y="-110.3915" font-family="Times,serif" font-size="14.00" fill="#000000">1</text>
<text text-anchor="middle" x="510.5" y="-300.4" font-family="Times,serif" font-size="14.00" fill="#000000">1</text>
</g>
<!-- Class_Train_Env -->
<g id="node12" class="node">
<title>Class_Train_Env</title>
<polygon fill="#f2f2f2" stroke="transparent" points="173.5,-806 16.5,-806 16.5,-680 173.5,-680 173.5,-806"/>
<polygon fill="none" stroke="#000000" points="17,-780 17,-806 174,-806 174,-780 17,-780"/>
<text text-anchor="start" x="21.9867" y="-789.4" font-family="Helvetica,Arial,sans-serif" font-size="14.00" fill="#000000"> </text>
<text text-anchor="start" x="25.8773" y="-789.4" font-family="Helvetica,Arial,sans-serif" font-weight="bold" font-size="14.00" fill="#000000">AutoTrainEnvironment</text>
<text text-anchor="start" x="165.1227" y="-789.4" font-family="Helvetica,Arial,sans-serif" font-size="14.00" fill="#000000"> </text>
<polygon fill="none" stroke="#000000" points="17,-710 17,-780 174,-780 174,-710 17,-710"/>
<text text-anchor="start" x="24" y="-760.4" font-family="Helvetica,Arial,sans-serif" font-size="14.00" fill="#000000">- deck</text>
<text text-anchor="start" x="24" y="-740.4" font-family="Helvetica,Arial,sans-serif" font-size="14.00" fill="#000000">- hands</text>
<text text-anchor="start" x="24" y="-720.4" font-family="Helvetica,Arial,sans-serif" font-size="14.00" fill="#000000">- agents</text>
<polygon fill="none" stroke="#000000" points="17,-680 17,-710 174,-710 174,-680 17,-680"/>
<text text-anchor="start" x="24" y="-690.4" font-family="Helvetica,Arial,sans-serif" font-size="14.00" fill="#000000">+ train(): void</text>
</g>
<!-- Class_Train_Env&#45;&gt;Class_Deck -->
<g id="edge11" class="edge">
<title>Class_Train_Env:cted-&gt;Class_Deck</title>
<path fill="none" stroke="#000000" d="M169,-765C213.0202,-765 188.0972,-823.6135 226,-846 355.1633,-922.2877 529.4763,-930.8781 651.9082,-924.8699"/>
<polygon fill="#000000" stroke="#000000" points="651.9801,-924.8662 657.7571,-920.5504 663.9629,-924.2231 658.1858,-928.5389 651.9801,-924.8662"/>
<text text-anchor="middle" x="660.4629" y="-911.6231" font-family="Times,serif" font-size="14.00" fill="#000000">1</text>
<text text-anchor="middle" x="172.5" y="-769.2" font-family="Times,serif" font-size="14.00" fill="#000000">1</text>
</g>
<!-- Class_Train_Env&#45;&gt;Class_Hand -->
<g id="edge12" class="edge">
<title>Class_Train_Env:cteh-&gt;Class_Hand</title>
<path fill="none" stroke="#000000" d="M169,-745C195.562,-745 222.9978,-739.3084 248.7162,-731.1257"/>
<polygon fill="#000000" stroke="#000000" points="249.0266,-731.0215 253.4416,-725.3199 260.4027,-727.2022 255.9877,-732.9039 249.0266,-731.0215"/>
<text text-anchor="middle" x="256.9027" y="-714.6022" font-family="Times,serif" font-size="14.00" fill="#000000">1</text>
<text text-anchor="middle" x="172.5" y="-749.2" font-family="Times,serif" font-size="14.00" fill="#000000">1</text>
</g>
<!-- Class_Train_Env&#45;&gt;Class_Agent -->
<g id="edge10" class="edge">
<title>Class_Train_Env:ctea-&gt;Class_Agent</title>
<path fill="none" stroke="#000000" d="M169,-725C194.7509,-725 180.9714,-695.1163 190,-671 206.5617,-626.7618 207.22,-614.3431 226,-571 246.9944,-522.5462 272.5433,-470.7266 296.206,-425.0051"/>
<polygon fill="#000000" stroke="#000000" points="296.3235,-424.779 295.5412,-417.6105 301.8574,-414.1312 302.6397,-421.2997 296.3235,-424.779"/>
<text text-anchor="middle" x="291.5541" y="-418.3312" font-family="Times,serif" font-size="14.00" fill="#000000">N   </text>
<text text-anchor="middle" x="172.5" y="-729.2" font-family="Times,serif" font-size="14.00" fill="#000000">1</text>
</g>
<!-- Class_Human_Env -->
<g id="node13" class="node">
<title>Class_Human_Env</title>
<polygon fill="#f2f2f2" stroke="transparent" points="190,-662 0,-662 0,-496 190,-496 190,-662"/>
<polygon fill="none" stroke="#000000" points="0,-636 0,-662 190,-662 190,-636 0,-636"/>
<text text-anchor="start" x="15.655" y="-645.4" font-family="Helvetica,Arial,sans-serif" font-size="14.00" fill="#000000"> </text>
<text text-anchor="start" x="19.5456" y="-645.4" font-family="Helvetica,Arial,sans-serif" font-weight="bold" font-size="14.00" fill="#000000">HumanPlayEnvironment</text>
<text text-anchor="start" x="170.4544" y="-645.4" font-family="Helvetica,Arial,sans-serif" font-size="14.00" fill="#000000"> </text>
<polygon fill="none" stroke="#000000" points="0,-566 0,-636 190,-636 190,-566 0,-566"/>
<text text-anchor="start" x="7" y="-616.4" font-family="Helvetica,Arial,sans-serif" font-size="14.00" fill="#000000">- deck</text>
<text text-anchor="start" x="7" y="-596.4" font-family="Helvetica,Arial,sans-serif" font-size="14.00" fill="#000000">- hands</text>
<text text-anchor="start" x="7" y="-576.4" font-family="Helvetica,Arial,sans-serif" font-size="14.00" fill="#000000">- agents</text>
<polygon fill="none" stroke="#000000" points="0,-496 0,-566 190,-566 190,-496 0,-496"/>
<text text-anchor="start" x="7" y="-546.4" font-family="Helvetica,Arial,sans-serif" font-size="14.00" fill="#000000">+ human_action(): void</text>
<text text-anchor="start" x="6.5095" y="-526.4" font-family="Helvetica,Arial,sans-serif" font-size="14.00" fill="#000000">+ environment_action(): void</text>
<text text-anchor="start" x="7" y="-506.4" font-family="Helvetica,Arial,sans-serif" font-size="14.00" fill="#000000">+ render(): void</text>
</g>
<!-- Class_Human_Env&#45;&gt;Class_Deck -->
<g id="edge14" class="edge">
<title>Class_Human_Env:ched-&gt;Class_Deck</title>
<path fill="none" stroke="#000000" d="M185,-621C255.8286,-621 175.1547,-725.6903 226,-775 233.8064,-782.5706 484.6304,-839.2833 651.9499,-876.4626"/>
<polygon fill="#000000" stroke="#000000" points="652.1335,-876.5033 658.858,-873.8991 663.8481,-879.1048 657.1236,-881.7089 652.1335,-876.5033"/>
<text text-anchor="middle" x="660.3481" y="-866.5048" font-family="Times,serif" font-size="14.00" fill="#000000">1</text>
<text text-anchor="middle" x="188.5" y="-625.2" font-family="Times,serif" font-size="14.00" fill="#000000">1</text>
</g>
<!-- Class_Human_Env&#45;&gt;Class_Hand -->
<g id="edge15" class="edge">
<title>Class_Human_Env:cheh-&gt;Class_Hand</title>
<path fill="none" stroke="#000000" d="M185,-601C206.2732,-601 228.0376,-605.2253 248.8067,-611.6287"/>
<polygon fill="#000000" stroke="#000000" points="248.837,-611.6386 255.788,-609.7192 260.2332,-615.3972 253.2823,-617.3167 248.837,-611.6386"/>
<text text-anchor="middle" x="256.7332" y="-602.7972" font-family="Times,serif" font-size="14.00" fill="#000000">1</text>
<text text-anchor="middle" x="188.5" y="-605.2" font-family="Times,serif" font-size="14.00" fill="#000000">1</text>
</g>
<!-- Class_Human_Env&#45;&gt;Class_Agent -->
<g id="edge13" class="edge">
<title>Class_Human_Env:chea-&gt;Class_Agent</title>
<path fill="none" stroke="#000000" d="M185,-581C224.995,-581 273.6009,-501.3631 310.8099,-425.5539"/>
<polygon fill="#000000" stroke="#000000" points="310.9793,-425.2044 309.9977,-418.0604 316.2147,-414.4066 317.1962,-421.5506 310.9793,-425.2044"/>
<text text-anchor="middle" x="326.518" y="-418.6066" font-family="Times,serif" font-size="14.00" fill="#000000">N   </text>
<text text-anchor="middle" x="188.5" y="-585.2" font-family="Times,serif" font-size="14.00" fill="#000000">1</text>
</g>
</g>
</svg>